<?xml version="1.0" standalone="no"?>
<!DOCTYPE svg PUBLIC "-//W3C//DTD SVG 20010904//EN"
 "http://www.w3.org/TR/2001/REC-SVG-20010904/DTD/svg10.dtd">
<svg version="1.0" xmlns="http://www.w3.org/2000/svg"
 width="1023.000000pt" height="1023.000000pt" viewBox="0 0 1023.000000 1023.000000"
 preserveAspectRatio="xMidYMid meet">
<metadata>
Created by potrace 1.14, written by Peter Selinger 2001-2017
</metadata>
<g transform="translate(0.000000,1023.000000) scale(0.100000,-0.100000)"
fill="#000000" stroke="none">
<path d="M550 9254 c0 -5 8 -19 18 -30 10 -10 29 -35 42 -54 33 -46 50 -69 77
-97 12 -13 19 -23 15 -23 -4 -1 3 -9 16 -20 13 -10 23 -22 22 -25 0 -3 4 -13
9 -23 6 -9 11 -13 11 -8 0 5 12 -9 26 -30 15 -21 32 -42 38 -46 6 -4 7 -8 3
-8 -5 0 -2 -7 7 -15 8 -9 30 -36 47 -60 18 -25 36 -45 41 -45 4 0 8 -6 8 -12
0 -7 14 -27 30 -45 17 -18 30 -37 30 -42 0 -6 5 -11 10 -11 6 0 10 -7 10 -16
0 -8 5 -12 10 -9 6 3 10 -1 10 -9 0 -8 8 -20 18 -25 9 -6 13 -11 8 -11 -5 0 0
-8 10 -17 11 -10 25 -30 33 -45 8 -15 18 -25 23 -22 4 3 8 -1 8 -9 0 -8 10
-25 23 -39 24 -28 54 -65 77 -98 8 -12 25 -34 37 -48 13 -15 23 -33 23 -40 0
-7 5 -10 10 -7 6 3 10 -1 10 -10 0 -9 5 -13 10 -10 6 3 10 0 10 -7 0 -11 16
-34 62 -88 7 -8 23 -29 35 -48 13 -18 32 -42 43 -54 11 -12 20 -28 20 -35 0
-8 5 -11 10 -8 6 3 10 -1 10 -9 0 -9 4 -16 8 -16 4 0 15 -13 25 -29 9 -15 32
-46 52 -67 19 -21 35 -44 35 -49 0 -6 9 -17 20 -25 11 -8 20 -20 20 -27 0 -6
6 -16 14 -20 7 -4 18 -18 25 -31 7 -12 16 -20 22 -17 5 4 8 3 7 -2 -5 -18 14
-53 29 -53 9 0 14 -3 10 -6 -3 -3 -2 -11 4 -18 5 -6 23 -27 39 -46 16 -19 30
-41 30 -48 0 -7 5 -10 10 -7 5 3 10 2 10 -3 0 -8 94 -137 110 -152 3 -3 17
-21 30 -40 13 -19 33 -43 44 -52 10 -10 15 -18 11 -18 -5 0 1 -9 12 -20 12
-11 30 -33 39 -50 10 -16 22 -30 26 -30 4 0 8 -7 8 -16 0 -8 5 -12 10 -9 6 3
10 0 10 -8 0 -8 11 -26 24 -40 14 -15 32 -40 42 -56 10 -17 21 -28 26 -25 4 3
8 -1 8 -8 0 -13 36 -62 76 -104 12 -13 20 -24 18 -26 -2 -2 9 -18 24 -34 15
-17 40 -49 56 -72 16 -23 33 -42 37 -42 5 0 8 -3 7 -8 -3 -7 8 -23 45 -63 9
-10 17 -22 17 -25 0 -4 10 -15 22 -25 11 -11 18 -19 14 -19 -7 0 4 -15 42 -55
13 -14 20 -25 16 -25 -4 0 2 -8 12 -17 11 -10 28 -31 37 -46 10 -16 26 -37 35
-49 39 -46 48 -57 62 -78 8 -13 26 -34 40 -48 14 -13 18 -21 10 -17 -8 4 -6
-1 5 -12 11 -11 29 -33 39 -47 11 -15 27 -36 35 -46 45 -52 51 -61 51 -68 0
-4 8 -15 18 -24 25 -25 42 -46 42 -55 0 -5 9 -15 20 -23 11 -8 20 -20 20 -27
0 -7 5 -13 10 -13 6 0 10 -7 10 -16 0 -8 5 -12 10 -9 6 3 10 0 10 -9 0 -8 4
-16 8 -18 5 -1 25 -26 44 -55 20 -29 38 -49 42 -46 3 4 6 0 6 -8 0 -8 10 -26
23 -41 13 -15 32 -39 43 -53 10 -15 27 -36 36 -48 10 -12 21 -27 25 -32 5 -6
25 -32 46 -58 21 -26 35 -47 30 -47 -4 0 -3 -4 3 -8 15 -9 134 -160 134 -168
0 -4 11 -17 24 -29 14 -13 22 -26 19 -29 -4 -3 -1 -6 5 -6 7 0 12 -7 12 -16 0
-8 5 -12 10 -9 6 3 10 -1 10 -9 0 -9 5 -16 10 -16 6 0 10 -4 10 -10 0 -10 9
-22 62 -83 15 -18 28 -35 28 -38 0 -3 8 -15 18 -27 10 -11 27 -33 38 -47 10
-15 24 -32 29 -39 6 -6 26 -33 45 -59 19 -27 45 -59 58 -72 12 -13 22 -29 22
-35 0 -5 3 -10 8 -10 4 0 21 -21 37 -45 17 -25 33 -45 37 -45 8 0 -20 -35 -59
-76 -13 -13 -23 -25 -23 -28 0 -2 -17 -22 -37 -44 -21 -22 -58 -64 -83 -93
-101 -117 -117 -134 -151 -171 -20 -21 -34 -38 -32 -38 5 0 -19 -27 -95 -106
-13 -13 -21 -24 -18 -24 4 0 -15 -20 -127 -142 -20 -22 -37 -42 -37 -45 0 -2
-10 -14 -23 -27 -12 -12 -40 -44 -62 -70 -22 -27 -57 -66 -77 -87 -21 -22 -38
-41 -38 -44 0 -3 -15 -21 -32 -39 -18 -18 -49 -52 -68 -76 -33 -40 -73 -85
-140 -157 -17 -18 -30 -35 -30 -39 0 -3 -17 -22 -37 -40 -20 -19 -34 -34 -30
-34 4 0 -8 -15 -26 -33 -18 -17 -41 -44 -51 -59 -10 -15 -22 -25 -27 -22 -5 3
-9 0 -9 -6 0 -6 -6 -17 -12 -25 -7 -7 -33 -36 -58 -65 -25 -29 -64 -72 -86
-96 -23 -24 -39 -44 -37 -44 3 0 0 -7 -7 -15 -7 -8 -16 -12 -21 -9 -5 3 -6 -3
-2 -12 4 -12 3 -15 -5 -10 -7 4 -12 4 -12 -1 0 -4 -18 -28 -40 -53 -22 -25
-40 -48 -40 -52 0 -5 -7 -8 -15 -8 -8 0 -14 -6 -12 -12 1 -7 -4 -12 -11 -10
-8 1 -11 -2 -7 -8 3 -5 1 -10 -5 -10 -6 0 -8 -5 -5 -10 3 -6 -1 -10 -10 -10
-9 0 -14 -4 -11 -9 3 -4 -8 -19 -24 -31 -17 -13 -28 -25 -26 -27 2 -2 -15 -24
-38 -48 -22 -23 -57 -62 -76 -85 -19 -23 -54 -62 -76 -85 -23 -24 -40 -46 -38
-48 2 -2 -9 -14 -26 -27 -16 -12 -27 -27 -24 -31 3 -5 -2 -9 -10 -9 -9 0 -15
-3 -14 -7 2 -5 -12 -23 -30 -42 -17 -19 -32 -38 -32 -42 0 -5 -7 -9 -15 -9 -8
0 -14 -4 -13 -8 3 -8 -18 -35 -75 -93 -15 -16 -27 -31 -27 -34 0 -9 -40 -45
-51 -45 -5 0 -8 -4 -4 -10 3 -5 -16 -32 -42 -59 -77 -80 -122 -131 -117 -131
3 0 -10 -13 -28 -30 -18 -16 -30 -30 -27 -30 4 0 -12 -20 -35 -44 -94 -101
-120 -131 -116 -132 3 0 -7 -12 -22 -26 -16 -14 -28 -31 -28 -37 0 -7 -4 -9
-10 -6 -5 3 -10 2 -10 -2 0 -5 -17 -28 -39 -50 -21 -23 -36 -45 -33 -48 3 -3
-2 -5 -11 -5 -10 0 -17 -5 -17 -11 0 -16 -47 -69 -54 -62 -3 4 -6 1 -6 -5 0
-6 -10 -22 -23 -36 -13 -13 -41 -46 -62 -71 -22 -26 -59 -67 -82 -91 -23 -24
-40 -44 -36 -44 3 0 -7 -13 -23 -28 -16 -16 -50 -53 -76 -83 -25 -30 -56 -65
-67 -78 -12 -13 -21 -28 -21 -33 0 -5 -6 -6 -12 -2 -8 4 -10 3 -5 -2 13 -14
138 -14 130 0 -5 8 -3 8 8 0 21 -17 1285 -13 1281 4 -1 7 1 11 5 10 5 -2 23
12 41 30 18 17 31 32 28 32 -4 0 51 63 125 141 20 21 35 40 33 42 -2 2 12 18
31 36 19 18 35 39 35 46 0 9 6 12 17 8 10 -4 14 -2 10 4 -4 6 6 23 23 36 16
14 30 29 30 32 0 8 33 46 67 77 12 12 20 25 17 30 -3 4 0 8 5 8 12 0 51 36 50
46 0 3 9 15 21 27 11 12 35 39 53 59 70 81 124 142 163 184 23 24 39 44 36 44
-4 0 10 15 30 34 20 19 34 36 32 39 -2 2 9 14 26 27 16 12 27 27 24 31 -3 5 2
9 10 9 9 0 15 3 14 8 -2 4 14 24 34 45 21 20 35 37 32 37 -3 0 5 11 18 23 13
13 46 50 73 82 28 32 63 71 79 87 16 15 26 28 22 28 -3 0 11 17 32 39 20 21
55 60 77 86 22 26 50 58 63 71 12 14 22 30 22 35 0 6 3 8 8 6 4 -2 15 4 25 15
9 10 14 18 10 18 -4 0 2 9 13 19 10 10 39 42 64 70 25 29 66 74 92 101 26 28
44 50 40 50 -3 0 7 13 23 29 36 35 80 84 80 91 1 3 19 23 40 46 22 23 60 65
85 94 25 29 55 63 68 76 12 13 22 25 22 28 0 2 12 17 28 33 23 24 92 101 162
183 88 102 128 147 148 168 12 12 22 25 22 27 0 2 17 21 38 43 20 22 55 61 77
87 22 27 51 59 65 72 14 12 21 23 17 23 -5 0 5 12 22 26 26 21 34 24 46 14 8
-7 15 -16 15 -21 0 -5 7 -17 15 -26 9 -10 37 -45 63 -78 25 -33 50 -62 54 -63
5 -2 6 -8 3 -12 -3 -5 5 -16 17 -24 12 -9 19 -16 15 -16 -5 0 -2 -6 5 -14 8
-7 40 -49 73 -92 33 -43 63 -81 68 -82 4 -2 7 -8 7 -13 0 -9 10 -22 62 -82 15
-18 28 -35 28 -38 0 -3 11 -19 25 -35 41 -46 45 -53 45 -64 0 -6 4 -8 10 -5 6
3 10 0 10 -7 0 -8 14 -29 30 -48 47 -54 49 -57 43 -64 -4 -3 1 -6 10 -6 10 0
17 -6 17 -13 0 -8 11 -24 25 -37 13 -12 22 -27 19 -31 -3 -5 -1 -9 3 -9 8 0
24 -20 101 -124 12 -17 30 -40 39 -51 9 -11 17 -22 17 -25 0 -3 8 -14 18 -25
10 -11 34 -40 54 -65 19 -25 41 -53 49 -62 7 -9 22 -29 32 -45 10 -15 26 -34
35 -41 10 -7 18 -18 18 -24 0 -6 12 -25 28 -42 15 -18 36 -44 47 -60 11 -15
31 -40 43 -56 13 -16 23 -31 23 -35 -1 -3 10 -16 24 -29 14 -13 25 -26 25 -30
0 -6 30 -43 58 -72 7 -8 10 -14 5 -14 -4 0 -3 -4 2 -8 11 -8 45 -48 85 -102
14 -18 31 -39 38 -46 6 -7 12 -15 12 -18 0 -6 24 -36 48 -61 6 -8 12 -18 12
-24 0 -6 7 -11 16 -11 8 0 13 -4 10 -8 -3 -5 3 -18 12 -28 10 -10 29 -35 42
-54 13 -19 37 -48 52 -65 15 -16 28 -33 28 -37 0 -5 8 -16 18 -26 9 -11 26
-32 37 -47 11 -16 26 -34 33 -41 6 -7 12 -16 12 -21 0 -5 9 -15 20 -23 11 -8
20 -20 20 -27 0 -6 8 -17 18 -22 9 -6 13 -11 9 -11 -5 0 -1 -7 7 -16 9 -9 29
-32 44 -52 15 -21 29 -39 32 -42 3 -3 17 -21 30 -40 13 -19 32 -42 42 -51 10
-9 18 -20 18 -24 0 -4 14 -24 30 -44 17 -20 34 -41 38 -46 38 -54 99 -131 105
-133 4 -2 7 -10 7 -18 0 -8 4 -14 9 -14 5 0 19 -15 31 -33 l22 -33 1424 0
c783 0 1424 2 1424 3 0 7 -75 108 -82 111 -5 2 -8 9 -8 16 0 6 -9 18 -20 26
-11 8 -20 20 -20 27 0 7 -3 13 -8 13 -4 0 -18 18 -32 40 -14 22 -28 40 -32 40
-5 0 -8 6 -8 13 0 7 -9 18 -20 25 -11 7 -20 17 -20 23 0 6 -6 16 -12 23 -7 7
-24 28 -38 46 -14 18 -31 39 -38 47 -7 7 -11 13 -7 13 4 0 0 7 -9 15 -8 9 -30
36 -47 60 -18 25 -37 45 -42 45 -6 0 -8 3 -4 6 6 6 -60 95 -75 102 -5 2 -8 8
-8 13 0 10 -22 39 -57 76 -13 13 -23 30 -23 38 0 7 -9 17 -20 20 -11 4 -18 10
-15 15 3 4 -4 19 -15 32 -57 66 -70 84 -70 96 0 6 -7 12 -15 12 -8 0 -15 5
-15 10 0 18 -4 25 -27 46 -13 12 -23 25 -23 29 0 4 -9 16 -21 26 -11 9 -21 21
-22 26 -1 4 -8 16 -17 26 -8 10 -14 20 -13 22 2 3 -8 16 -21 31 -41 46 -56 64
-56 68 0 3 -11 17 -25 32 -14 15 -25 33 -25 41 0 8 -4 11 -10 8 -5 -3 -10 0
-10 8 0 8 -7 18 -16 21 -8 3 -13 10 -10 14 3 5 -4 15 -15 22 -10 8 -19 18 -19
23 0 4 -9 17 -20 29 -10 12 -17 26 -13 31 3 6 1 7 -5 3 -8 -4 -16 3 -22 19 -5
14 -17 28 -25 31 -8 4 -15 12 -15 20 0 8 -4 14 -10 14 -5 0 -10 4 -10 10 0 10
-21 39 -56 76 -12 13 -19 25 -17 28 3 3 -2 8 -11 12 -9 3 -16 10 -16 15 0 6
-9 19 -20 31 -11 12 -20 28 -20 35 0 8 -5 11 -10 8 -5 -3 -10 0 -10 9 0 8 -3
16 -8 18 -12 5 -132 168 -132 179 0 6 -3 8 -7 6 -5 -3 -19 13 -33 34 -13 21
-28 39 -32 39 -4 0 -8 5 -8 11 0 5 -25 41 -55 80 -31 38 -52 69 -48 69 4 1 -3
7 -17 15 -14 8 -21 14 -16 15 5 0 0 8 -10 18 -10 9 -20 24 -22 32 -2 8 -10 19
-18 23 -8 4 -14 15 -14 22 0 8 -7 15 -16 15 -8 0 -12 5 -9 10 3 5 1 10 -4 10
-6 0 -11 7 -11 16 0 8 -4 12 -10 9 -5 -3 -10 1 -10 10 0 8 -7 18 -16 22 -8 3
-13 12 -10 19 3 7 -4 16 -15 19 -10 4 -17 11 -14 16 4 5 1 9 -5 9 -6 0 -8 5
-5 10 3 6 2 10 -4 10 -5 0 -25 21 -43 48 -17 26 -42 58 -55 72 -13 14 -23 28
-23 31 0 3 -11 19 -25 35 -13 16 -31 36 -38 45 -7 8 -16 23 -20 32 -3 9 -11
17 -17 17 -5 0 -10 6 -10 13 0 6 -18 32 -40 57 -22 25 -40 50 -40 57 0 6 -4
13 -8 15 -5 1 -38 41 -73 88 -35 47 -70 91 -76 98 -7 7 -13 16 -13 20 0 4 -14
22 -31 40 -16 17 -27 32 -23 32 4 0 -1 7 -12 15 -10 8 -15 15 -9 15 5 0 -1 7
-13 16 -12 8 -22 21 -22 27 0 7 -9 19 -20 27 -11 8 -20 18 -20 23 0 5 -6 15
-12 22 -27 30 -39 46 -77 99 -21 31 -41 53 -45 49 -3 -3 -6 1 -6 10 0 10 -5
17 -12 17 -6 0 -9 3 -5 6 5 5 -15 33 -50 70 -7 7 -13 17 -13 22 0 6 -3 12 -7
14 -16 7 -102 126 -96 132 3 3 2 6 -4 6 -11 0 -93 103 -93 117 0 5 -9 14 -20
21 -11 7 -20 17 -20 23 0 7 -12 23 -27 37 -16 14 -26 28 -24 30 2 2 -8 17 -23
32 -14 16 -26 32 -26 37 0 4 -16 26 -35 48 -52 60 -55 63 -55 72 0 5 -9 15
-20 23 -11 8 -20 18 -20 23 0 10 -71 100 -82 105 -5 2 -8 8 -8 13 0 10 -2 14
-50 70 -16 20 -30 40 -30 44 0 4 -10 16 -22 26 -11 11 -17 19 -13 19 5 0 2 6
-6 13 -8 6 -35 39 -60 72 -59 80 -55 75 -89 115 -45 53 -48 45 78 186 20 23
55 62 77 89 22 26 56 64 75 85 19 22 55 62 80 91 25 29 56 65 70 80 14 15 41
46 60 69 19 23 49 57 65 74 17 18 51 57 77 87 25 30 56 65 68 79 12 14 45 52
73 84 29 33 68 77 88 98 20 21 34 38 31 38 -3 0 5 9 18 20 13 11 21 20 18 20
-3 0 15 22 41 48 25 27 62 68 81 92 60 73 87 100 95 92 3 -4 5 -2 3 5 -3 12
51 79 130 160 23 24 42 47 42 49 0 3 13 20 29 37 68 74 91 102 91 109 0 5 7 8
16 8 8 0 13 4 9 9 -3 6 4 15 16 21 11 7 18 14 16 17 -3 3 17 27 44 54 27 27
47 49 43 49 -3 0 9 15 28 34 49 51 73 80 70 89 -1 4 5 7 13 7 8 0 15 4 15 10
0 5 20 30 44 54 24 24 46 52 50 61 3 9 11 13 17 9 7 -4 9 -3 6 3 -4 5 4 19 16
30 12 11 28 29 36 41 8 11 19 18 24 15 6 -3 7 -1 4 4 -4 6 18 36 47 67 30 31
52 56 48 56 -3 0 8 13 26 29 17 17 32 32 32 35 0 2 20 26 45 52 25 25 45 53
45 60 0 7 6 11 14 8 10 -4 16 2 18 18 2 13 9 22 16 20 7 -1 16 6 19 15 4 10
21 34 39 53 158 172 204 226 204 241 0 5 5 7 10 4 6 -3 10 -2 10 4 0 6 18 29
40 52 22 23 40 46 40 51 0 4 8 8 17 8 9 0 13 3 10 6 -4 4 3 15 15 25 11 11 18
19 15 19 -4 0 16 23 43 51 28 28 50 55 50 60 0 5 7 9 15 9 8 0 14 3 13 8 -4
12 38 62 53 62 7 0 9 3 6 7 -4 3 7 19 23 35 16 15 27 28 23 28 -3 0 9 15 28
34 19 19 54 58 79 87 44 51 80 93 118 134 49 54 100 50 -674 50 -417 0 -714
-4 -714 -9 0 -5 -20 -31 -45 -57 -25 -26 -45 -54 -45 -60 0 -7 -3 -10 -6 -6
-8 7 -34 -17 -34 -32 0 -6 -4 -11 -9 -11 -5 0 -19 -16 -32 -35 -13 -19 -30
-35 -37 -35 -6 0 -11 -3 -10 -7 3 -8 -14 -28 -72 -92 -14 -16 -50 -56 -80 -91
-30 -35 -61 -69 -68 -76 -7 -7 -14 -17 -15 -21 -1 -4 -5 -7 -10 -5 -4 1 -7 -3
-7 -8 0 -6 -16 -26 -36 -45 -20 -19 -33 -35 -30 -35 3 0 -8 -14 -24 -30 -17
-17 -30 -35 -30 -41 0 -6 -3 -8 -7 -6 -8 5 -34 -17 -33 -28 1 -21 -1 -26 -9
-21 -5 3 -21 -12 -36 -34 -15 -22 -32 -37 -38 -33 -5 3 -7 2 -4 -4 3 -5 -2
-16 -11 -25 -9 -9 -33 -35 -52 -58 -19 -24 -51 -60 -70 -81 -19 -21 -53 -59
-75 -85 -22 -27 -53 -61 -69 -76 -15 -15 -25 -28 -22 -28 3 0 -8 -13 -24 -29
-17 -15 -30 -34 -30 -40 0 -7 -4 -9 -10 -6 -6 3 -10 2 -10 -3 0 -5 -15 -25
-32 -44 -18 -19 -50 -54 -70 -79 -20 -24 -53 -62 -72 -83 -20 -22 -36 -44 -36
-48 0 -5 -4 -6 -10 -3 -5 3 -10 1 -10 -5 0 -10 -33 -49 -102 -122 -15 -15 -25
-28 -23 -28 5 0 -63 -77 -102 -115 -13 -12 -23 -28 -23 -34 0 -7 -4 -9 -10 -6
-5 3 -10 1 -10 -5 0 -6 -14 -24 -30 -40 -16 -16 -30 -32 -30 -34 0 -3 -13 -19
-30 -36 -16 -17 -30 -35 -30 -41 0 -6 -4 -7 -10 -4 -5 3 -10 1 -10 -4 0 -6 -8
-19 -17 -29 -54 -55 -113 -125 -113 -133 0 -5 -7 -9 -15 -9 -8 0 -14 -4 -12
-8 2 -8 -18 -32 -94 -113 -20 -22 -34 -39 -32 -39 3 0 -9 -13 -27 -30 -18 -16
-30 -30 -27 -30 3 0 -14 -20 -39 -45 -24 -25 -42 -45 -39 -45 3 0 -9 -15 -27
-34 -39 -39 -111 -123 -131 -150 -13 -18 -15 -18 -38 -2 -13 9 -23 20 -22 24
1 4 -9 21 -22 37 -13 17 -37 48 -54 70 -17 22 -41 51 -53 65 -13 13 -22 27
-21 30 1 3 -9 17 -23 32 -13 15 -24 32 -24 38 0 5 -4 10 -8 10 -4 0 -16 14
-26 30 -9 17 -28 41 -42 55 -13 13 -24 29 -24 35 0 5 -3 10 -8 10 -4 0 -18 18
-32 40 -14 22 -28 40 -32 40 -5 0 -8 7 -8 16 0 8 -4 12 -10 9 -5 -3 -10 0 -10
8 0 8 -12 26 -26 41 -15 14 -23 26 -19 26 5 0 -2 8 -13 19 -12 10 -22 23 -22
30 0 6 -3 11 -7 11 -5 0 -19 17 -33 38 -13 20 -37 50 -52 66 -16 17 -28 35
-28 41 0 6 -8 18 -17 27 -26 25 -43 46 -43 55 0 5 -8 16 -17 24 -10 9 -27 29
-38 44 -11 15 -39 53 -62 83 -24 30 -43 59 -43 64 0 5 -4 6 -10 3 -5 -3 -10 0
-10 7 0 8 -13 29 -30 48 -16 19 -29 41 -30 48 0 7 -4 10 -10 7 -10 -6 -15 9
-10 30 1 5 -2 7 -5 3 -4 -4 -30 23 -57 60 -27 37 -54 74 -61 82 -7 8 -14 20
-17 25 -2 6 -13 20 -25 31 -11 12 -27 31 -35 44 -8 12 -21 28 -27 36 -7 7 -13
16 -13 21 0 5 -9 15 -20 23 -11 8 -20 20 -20 27 0 6 -9 18 -20 26 -11 8 -17
17 -13 20 3 4 0 7 -7 7 -7 0 -11 3 -7 6 3 3 -4 16 -16 29 -36 37 -57 65 -57
74 0 5 -3 11 -7 13 -10 4 -73 85 -73 93 0 3 -12 17 -26 30 -15 14 -24 25 -20
25 4 0 1 6 -6 14 -7 8 -24 28 -38 46 -14 18 -31 38 -38 46 -7 8 -11 14 -7 14
3 0 -6 11 -20 25 -14 14 -25 29 -25 34 0 4 -8 16 -18 27 -16 18 -94 120 -137
180 -11 15 -26 33 -32 40 -7 7 -13 17 -13 22 0 6 -7 12 -15 16 -8 3 -15 12
-15 21 0 8 -4 15 -8 15 -4 0 -25 25 -47 55 -22 30 -44 55 -48 55 -5 0 -5 5 -2
10 3 6 -1 13 -9 16 -9 3 -16 10 -16 16 0 5 -6 16 -14 24 -8 7 -16 19 -18 26
-6 17 -2928 19 -2928 2z m1750 -798 c0 10 152 10 169 0 6 -4 11 -4 11 1 0 9
275 7 290 -2 6 -3 10 -3 10 2 0 10 153 9 169 -1 6 -4 11 -4 11 1 0 4 20 7 45
5 42 -4 51 -11 45 -37 -1 -5 1 -7 5 -3 4 4 28 -21 53 -54 56 -76 63 -85 85
-106 9 -9 17 -21 17 -27 0 -7 11 -22 25 -35 14 -13 23 -25 21 -28 -3 -2 6 -15
19 -28 13 -13 32 -37 41 -54 10 -16 22 -30 26 -30 4 0 8 -4 8 -10 0 -5 8 -18
18 -28 26 -29 52 -62 52 -68 0 -6 15 -24 48 -59 12 -13 22 -28 22 -33 0 -5 7
-16 16 -23 9 -8 27 -30 39 -49 12 -19 32 -46 44 -60 54 -63 71 -86 71 -92 0
-5 7 -16 15 -25 52 -60 68 -81 83 -105 9 -16 20 -28 24 -28 4 0 8 -6 8 -14 0
-8 3 -16 8 -18 4 -1 20 -21 37 -43 16 -22 38 -50 48 -62 11 -11 19 -24 19 -27
-1 -3 12 -19 28 -37 17 -17 27 -36 23 -42 -3 -6 -1 -7 5 -3 7 4 12 1 12 -9 0
-9 5 -13 10 -10 6 3 10 1 10 -5 0 -12 120 -173 133 -178 4 -2 7 -10 7 -17 0
-7 4 -15 8 -17 4 -1 30 -32 57 -68 27 -36 54 -68 60 -72 5 -4 6 -8 2 -8 -5 0
-2 -6 5 -14 24 -25 53 -61 82 -104 16 -23 33 -42 37 -42 5 0 9 -7 9 -15 0 -8
5 -15 11 -15 5 0 7 -4 4 -10 -3 -5 0 -10 7 -10 7 0 19 -12 25 -27 7 -16 29
-46 50 -68 20 -22 36 -41 34 -43 -2 -3 76 -107 102 -133 9 -11 14 -19 10 -19
-5 -1 3 -10 16 -20 13 -11 20 -20 17 -20 -4 0 3 -10 14 -22 12 -13 29 -35 38
-50 9 -16 20 -28 24 -28 4 0 8 -7 8 -16 0 -8 5 -12 10 -9 6 3 10 0 10 -8 0 -7
9 -23 20 -35 11 -12 20 -26 20 -32 0 -6 5 -8 10 -5 6 3 10 0 10 -7 0 -7 10
-25 23 -40 13 -15 32 -39 43 -54 10 -14 25 -32 32 -40 7 -8 11 -14 7 -14 -4 0
1 -7 9 -16 9 -9 29 -32 44 -52 15 -21 29 -39 32 -42 3 -3 17 -21 30 -40 13
-19 30 -41 37 -48 7 -7 20 -26 30 -42 9 -17 21 -30 25 -30 4 0 8 -6 8 -13 0
-7 9 -18 20 -25 11 -7 20 -19 20 -27 0 -8 3 -15 8 -15 4 0 18 -17 32 -37 32
-48 50 -71 77 -100 13 -13 23 -27 24 -31 3 -11 122 -167 131 -170 4 -2 8 -10
8 -18 0 -8 7 -17 15 -20 8 -4 15 -13 15 -20 0 -8 7 -17 15 -20 8 -4 15 -12 15
-20 0 -8 5 -14 10 -14 6 0 10 -7 10 -16 0 -8 4 -12 10 -9 6 3 10 0 10 -8 0 -7
11 -24 25 -37 14 -13 23 -25 21 -28 -3 -2 5 -14 17 -27 30 -32 69 -83 67 -90
0 -3 11 -16 25 -29 14 -13 25 -28 25 -34 0 -6 10 -18 22 -26 12 -9 18 -16 13
-16 -6 -1 1 -10 14 -20 13 -11 19 -20 15 -20 -5 0 -4 -4 2 -8 6 -4 44 -52 84
-107 41 -55 79 -105 85 -111 25 -29 45 -55 45 -60 0 -3 6 -11 13 -19 28 -30
47 -56 47 -65 0 -6 5 -10 10 -10 6 0 10 -5 10 -10 0 -6 10 -21 23 -34 12 -13
29 -33 37 -46 8 -12 22 -30 30 -41 8 -10 26 -34 40 -54 14 -19 37 -49 52 -67
15 -17 25 -36 21 -42 -3 -6 -3 -8 1 -4 10 8 36 -14 30 -24 -3 -4 4 -13 16 -20
11 -7 20 -16 20 -21 0 -16 67 -96 75 -89 5 4 5 1 1 -6 -5 -9 0 -19 13 -28 12
-8 21 -22 21 -30 0 -8 3 -14 8 -14 4 0 23 -23 42 -50 19 -27 38 -50 43 -50 4
0 7 -6 7 -14 0 -8 3 -16 8 -18 10 -4 72 -85 72 -94 0 -4 8 -14 18 -23 9 -9 28
-32 42 -51 28 -40 39 -55 60 -79 9 -9 26 -33 39 -54 12 -20 27 -37 32 -37 5 0
9 -4 9 -10 0 -12 108 -154 121 -158 5 -2 7 -8 3 -13 -3 -5 0 -9 5 -9 6 0 11
-7 11 -16 0 -8 4 -12 10 -9 6 3 10 -1 10 -9 0 -9 5 -16 10 -16 6 0 10 -5 10
-10 0 -6 9 -20 20 -32 11 -12 32 -40 47 -62 15 -23 34 -48 43 -57 8 -8 35 -44
60 -79 25 -35 53 -71 63 -82 9 -10 15 -18 12 -18 -3 0 3 -9 13 -19 9 -11 26
-32 37 -46 11 -15 25 -32 30 -38 6 -7 22 -28 35 -47 30 -43 40 -56 63 -81 9
-10 14 -19 11 -19 -3 0 4 -9 17 -20 13 -10 20 -19 16 -20 -4 0 6 -15 22 -32
17 -18 31 -37 31 -41 0 -4 10 -19 23 -32 38 -41 48 -55 40 -55 -4 -1 3 -7 17
-15 14 -8 20 -14 13 -15 -7 0 -2 -10 10 -23 41 -43 77 -92 77 -105 0 -7 4 -10
10 -7 5 3 10 -1 10 -9 0 -9 5 -16 10 -16 6 0 10 -7 10 -16 0 -8 4 -12 10 -9 8
5 14 -7 9 -17 -2 -3 46 -61 77 -94 12 -13 20 -24 18 -27 -2 -2 11 -20 30 -40
18 -20 31 -39 28 -42 -3 -3 -1 -5 5 -5 6 0 13 -9 16 -21 4 -13 10 -18 18 -13
7 4 10 3 6 -3 -3 -5 7 -24 23 -43 16 -19 27 -37 24 -41 -2 -4 5 -10 16 -14 11
-4 18 -11 15 -16 -4 -5 -2 -9 3 -9 6 0 8 -9 5 -21 -3 -11 -9 -17 -12 -12 -7
10 -101 10 -118 0 -6 -4 -14 -3 -17 2 -7 10 -25 9 -43 -2 -7 -5 -13 -4 -13 2
0 11 -40 8 -60 -4 -8 -5 -11 -4 -7 1 3 6 -11 10 -33 10 -21 0 -36 -4 -33 -9 3
-5 -2 -5 -13 0 -21 11 -84 11 -101 0 -6 -4 -14 -3 -17 2 -7 10 -25 9 -43 -2
-7 -5 -13 -4 -13 2 0 11 -40 8 -60 -4 -8 -5 -11 -4 -7 1 3 6 -11 10 -33 10
-21 0 -36 -4 -33 -9 3 -5 -3 -5 -13 1 -11 5 -30 8 -44 7 -42 -5 -66 5 -83 33
-9 15 -28 39 -42 54 -14 16 -23 28 -19 28 4 0 -5 11 -20 25 -14 13 -26 28 -26
33 0 4 -13 23 -30 42 -16 18 -32 42 -36 52 -3 10 -12 18 -20 18 -8 0 -14 6
-14 13 0 8 -9 22 -20 32 -11 10 -18 20 -16 22 2 2 -12 20 -30 40 -18 20 -31
40 -28 45 3 5 0 7 -7 6 -7 -2 -13 3 -14 10 0 7 -5 16 -10 20 -6 4 -23 25 -40
47 -16 22 -34 43 -39 47 -6 4 -8 8 -4 8 6 0 1 7 -61 81 -17 20 -31 42 -31 48
0 7 -4 9 -10 6 -5 -3 -10 0 -10 9 0 8 -3 16 -7 18 -5 2 -20 21 -35 43 -15 22
-39 52 -53 68 -14 15 -23 27 -20 27 3 0 -3 8 -12 18 -28 29 -53 62 -53 68 0 3
-13 19 -30 37 -16 18 -30 36 -30 41 0 5 -6 14 -13 20 -8 6 -49 58 -93 116 -43
58 -82 107 -86 108 -5 2 -8 10 -8 17 0 7 -7 16 -16 19 -9 4 -14 9 -11 13 4 3
-1 13 -11 22 -9 9 -29 32 -44 53 -15 20 -35 43 -44 52 -8 9 -13 16 -9 16 3 0
-4 10 -15 23 -12 12 -29 34 -38 50 -9 15 -20 27 -24 27 -4 0 -14 12 -22 28 -8
15 -23 36 -33 47 -11 11 -28 34 -39 50 -10 17 -27 36 -36 43 -10 7 -18 20 -18
28 0 8 -3 14 -7 14 -5 0 -24 23 -43 50 -19 27 -38 50 -42 50 -5 0 -8 6 -8 13
0 7 -8 20 -17 29 -22 20 -49 55 -71 91 -9 15 -20 27 -24 27 -4 0 -8 7 -8 16 0
8 -4 12 -10 9 -5 -3 -10 1 -10 9 0 8 -8 20 -17 25 -10 6 -15 11 -10 11 4 0 -1
9 -10 19 -34 37 -43 50 -43 61 0 6 -4 8 -10 5 -5 -3 -10 -1 -10 5 0 11 -57 89
-75 102 -6 5 -6 8 -1 8 6 0 3 6 -6 13 -14 11 -109 130 -153 193 -11 16 -30 39
-42 52 -13 13 -23 27 -23 32 0 6 -8 19 -17 29 -31 33 -47 54 -77 96 -16 22
-33 42 -38 43 -4 2 -8 8 -8 14 0 6 -10 19 -22 29 -11 11 -18 19 -15 19 4 0 -2
10 -12 23 -11 12 -29 33 -41 47 -12 14 -29 37 -38 53 -9 15 -19 27 -23 27 -4
0 -12 14 -19 30 -7 17 -18 30 -24 30 -6 0 -16 8 -21 19 -23 43 -66 101 -75
101 -6 0 -10 5 -10 11 0 6 -21 36 -46 67 -57 72 -60 75 -114 147 -25 33 -48
62 -52 63 -5 2 -8 10 -8 17 0 7 -3 15 -8 17 -4 2 -23 23 -42 48 -19 25 -39 48
-45 52 -5 4 -6 8 -2 8 4 0 -2 11 -15 24 -13 13 -32 36 -43 52 -11 15 -28 36
-37 46 -10 10 -15 18 -10 18 4 0 2 4 -4 8 -6 4 -30 34 -55 67 -24 33 -49 66
-56 75 -54 67 -135 173 -163 213 -18 26 -37 47 -42 47 -5 0 -6 5 -3 10 3 6 3
10 -2 10 -4 0 -19 17 -33 38 -14 20 -34 46 -45 58 -11 12 -27 31 -35 44 -8 12
-22 30 -30 40 -8 10 -22 28 -30 40 -8 12 -20 28 -25 34 -34 38 -75 96 -75 107
0 7 -3 9 -7 6 -3 -4 -13 3 -21 16 -24 36 -126 171 -140 186 -7 8 -21 26 -30
40 -17 25 -23 33 -76 96 -14 17 -26 36 -26 43 0 6 -4 12 -8 12 -5 0 -24 21
-43 48 -44 62 -51 70 -71 90 -10 9 -18 20 -18 25 0 5 -6 14 -12 22 -7 7 -24
28 -38 46 -14 18 -31 38 -37 45 -7 7 -13 15 -13 19 0 4 -6 12 -12 20 -25 26
-48 55 -48 61 0 4 -11 17 -26 30 -14 13 -22 24 -19 24 6 0 -4 13 -35 49 -8 9
-26 33 -40 54 -14 20 -28 37 -32 37 -5 0 -8 6 -8 13 0 7 -9 19 -20 27 -11 8
-20 20 -20 27 0 7 -4 13 -8 13 -4 0 -15 12 -24 28 -15 25 -37 52 -87 108 -11
12 -17 25 -14 28 3 3 -2 8 -11 12 -9 3 -16 12 -16 19 0 7 -4 15 -8 17 -4 2
-30 32 -57 68 -27 36 -54 68 -60 72 -5 4 -6 8 -2 8 4 0 -2 11 -15 24 -13 13
-30 33 -38 45 -23 34 -53 73 -72 93 -10 10 -18 20 -18 23 0 3 0 10 0 16 0 5
-5 7 -10 4 -6 -3 -14 5 -20 19 -5 14 -14 26 -20 26 -5 0 -12 11 -16 25 -3 13
-15 27 -25 30 -11 4 -17 10 -15 14 3 4 -6 19 -20 34 -14 15 -22 27 -18 27 3 0
-4 9 -17 20 -13 10 -20 19 -16 20 4 0 2 6 -5 14 -7 8 -17 11 -22 8 -5 -3 -6
-1 -3 5 3 5 -7 24 -23 41 -16 18 -26 32 -23 32 3 0 -4 9 -17 20 -13 11 -20 20
-16 20 4 0 -5 12 -19 27 -14 15 -25 34 -25 42 0 8 -3 11 -7 8 -3 -4 -13 4 -22
17 -9 13 -31 43 -49 67 l-34 44 39 5 c21 3 44 2 51 -3 6 -5 12 -6 12 -1z"/>
</g>
</svg>
